<svg width="44" height="44" viewBox="0 0 44 44" fill="none" xmlns="http://www.w3.org/2000/svg">
<path d="M29 19C29 20.45 28.57 21.78 27.83 22.89C27.2878 23.6987 26.5824 24.3852 25.7592 24.9053C24.9361 25.4254 24.0132 25.7676 23.05 25.91C22.71 25.97 22.36 26 22 26C21.64 26 21.29 25.97 20.95 25.91C19.9868 25.7676 19.0639 25.4254 18.2408 24.9053C17.4176 24.3852 16.7122 23.6987 16.17 22.89C15.4023 21.7383 14.995 20.3841 15 19C15 15.13 18.13 12 22 12C25.87 12 29 15.13 29 19Z" stroke="black" stroke-width="1.5" stroke-linecap="round" stroke-linejoin="round"/>
<path d="M31.25 28.47L29.6 28.86C29.23 28.95 28.94 29.23 28.86 29.6L28.51 31.07C28.4671 31.2504 28.3748 31.4154 28.2435 31.5464C28.1122 31.6774 27.9471 31.7693 27.7665 31.8119C27.586 31.8544 27.3972 31.8459 27.2212 31.7873C27.0452 31.7287 26.889 31.6223 26.77 31.48L22 26L17.23 31.49C17.111 31.6323 16.9548 31.7387 16.7788 31.7973C16.6029 31.8559 16.414 31.8644 16.2335 31.8219C16.053 31.7793 15.8878 31.6874 15.7565 31.5564C15.6252 31.4254 15.5329 31.2604 15.49 31.08L15.14 29.61C15.0975 29.4301 15.0057 29.2657 14.875 29.135C14.7443 29.0043 14.5799 28.9125 14.4 28.87L12.75 28.48C12.5771 28.4386 12.4184 28.3519 12.29 28.229C12.1616 28.106 12.0682 27.9511 12.0194 27.7802C11.9706 27.6092 11.968 27.4284 12.0121 27.2562C12.0561 27.0839 12.1451 26.9265 12.27 26.8L16.17 22.9C16.7123 23.7087 17.4176 24.3952 18.2408 24.9153C19.064 25.4354 19.9868 25.7776 20.95 25.92C21.29 25.98 21.64 26.01 22 26.01C22.36 26.01 22.71 25.98 23.05 25.92C25.04 25.63 26.75 24.5 27.83 22.9L31.73 26.8C32.28 27.34 32.01 28.29 31.25 28.47V28.47ZM22.58 15.98L23.17 17.16C23.25 17.32 23.46 17.48 23.65 17.51L24.72 17.69C25.4 17.8 25.56 18.3 25.07 18.79L24.24 19.62C24.1 19.76 24.02 20.03 24.07 20.23L24.31 21.26C24.5 22.07 24.07 22.39 23.35 21.96L22.35 21.37C22.2485 21.3158 22.1351 21.2875 22.02 21.2875C21.9049 21.2875 21.7916 21.3158 21.69 21.37L20.69 21.96C19.97 22.38 19.54 22.07 19.73 21.26L19.97 20.23C20.01 20.04 19.94 19.76 19.8 19.62L18.97 18.79C18.48 18.3 18.64 17.81 19.32 17.69L20.39 17.51C20.57 17.48 20.78 17.32 20.86 17.16L21.45 15.98C21.74 15.34 22.26 15.34 22.58 15.98V15.98Z" stroke="black" stroke-width="1.5" stroke-linecap="round" stroke-linejoin="round"/>
<circle cx="22" cy="22" r="22" fill="#919FE5" fill-opacity="0.3"/>
</svg>
