<svg width="102" height="101" viewBox="0 0 102 101" fill="none" xmlns="http://www.w3.org/2000/svg">
<path d="M23.8572 50.5218C23.7402 61.2287 25.5167 67.7167 29.4622 71.6235C33.4198 75.5423 40.0533 77.3571 51.0002 77.3571C61.9464 77.3571 68.5174 75.5425 72.445 71.628C76.3697 67.7163 78.1431 61.2205 78.1431 50.5C78.1431 39.7794 76.3697 33.2836 72.445 29.3719C68.5174 25.4575 61.9464 23.6428 51.0002 23.6428C40.0548 23.6428 33.5463 25.4573 29.6489 29.3673C25.7447 33.284 23.9746 39.7876 23.8572 50.5218Z" stroke="white" stroke-width="4" stroke-linecap="round" stroke-linejoin="round"/>
<path d="M51 3.60718V10.8215" stroke="white" stroke-width="4" stroke-linecap="round"/>
<path d="M51 90.1785V97.3928" stroke="white" stroke-width="4" stroke-linecap="round"/>
<path d="M98.3572 50.5L91.0715 50.5" stroke="white" stroke-width="4" stroke-linecap="round"/>
<path d="M10.9285 50.5L3.64275 50.5" stroke="white" stroke-width="4" stroke-linecap="round"/>
<path d="M14.5715 14.4286L19.7233 19.5299" stroke="white" stroke-width="4" stroke-linecap="round"/>
<path d="M14.5715 88.065L19.7233 82.9637" stroke="white" stroke-width="4" stroke-linecap="round"/>
<path d="M88.937 14.4286L83.7852 19.5299" stroke="white" stroke-width="4" stroke-linecap="round"/>
<path d="M88.937 88.065L83.7852 82.9637" stroke="white" stroke-width="4" stroke-linecap="round"/>
</svg>
