<svg width="20" height="20" viewBox="0 0 20 20" fill="none" xmlns="http://www.w3.org/2000/svg">
<path d="M9.58333 10H0.416667C0.306199 10.0001 0.200292 10.0441 0.122179 10.1222C0.0440662 10.2003 0.000126819 10.3062 0 10.4167V19.5833C0.000126819 19.6938 0.0440662 19.7997 0.122179 19.8778C0.200292 19.9559 0.306199 19.9999 0.416667 20H9.58333C9.6938 19.9999 9.79971 19.9559 9.87782 19.8778C9.95593 19.7997 9.99987 19.6938 10 19.5833V10.4167C9.99987 10.3062 9.95593 10.2003 9.87782 10.1222C9.79971 10.0441 9.6938 10.0001 9.58333 10V10ZM9.33333 19.3333H0.666667V10.6667H9.33333V19.3333Z" fill="black"/>
<path d="M9.58333 0H0.416667C0.306199 0.000126819 0.200292 0.0440662 0.122179 0.122179C0.0440662 0.200292 0.000126819 0.306199 0 0.416667V9.58333C0.000126819 9.6938 0.0440662 9.79971 0.122179 9.87782C0.200292 9.95593 0.306199 9.99987 0.416667 10H9.58333C9.6938 9.99987 9.79971 9.95593 9.87782 9.87782C9.95593 9.79971 9.99987 9.6938 10 9.58333V0.416667C9.99987 0.306199 9.95593 0.200292 9.87782 0.122179C9.79971 0.0440662 9.6938 0.000126819 9.58333 0V0ZM9.33333 9.33333H0.666667V0.666667H9.33333V9.33333Z" fill="black"/>
<path d="M19.5833 10H10.4167C10.3062 10.0001 10.2003 10.0441 10.1222 10.1222C10.0441 10.2003 10.0001 10.3062 10 10.4167V19.5833C10.0001 19.6938 10.0441 19.7997 10.1222 19.8778C10.2003 19.9559 10.3062 19.9999 10.4167 20H19.5833C19.6938 19.9999 19.7997 19.9559 19.8778 19.8778C19.9559 19.7997 19.9999 19.6938 20 19.5833V10.4167C19.9999 10.3062 19.9559 10.2003 19.8778 10.1222C19.7997 10.0441 19.6938 10.0001 19.5833 10V10ZM19.3333 19.3333H10.6667V10.6667H19.3333V19.3333Z" fill="black"/>
</svg>
