<svg width="34" height="35" viewBox="0 0 34 35" fill="none" xmlns="http://www.w3.org/2000/svg">
<path d="M33.4648 20.6375C34.2211 34.4272 37.2461 32.1632 13.2347 31.3399C7.2828 31.3399 0 11.5428 0 4.94998C0 -1.64282 8.60627 0.252636 14.5581 0.252636C24.5787 0.252636 32.8225 8.92686 33.4648 20.6375Z" fill="#919FE5"/>
<path d="M0.535213 14.3625C-0.221054 0.572811 -3.24612 2.83679 20.7653 3.66005C26.7172 3.66005 34 23.4572 34 30.05C34 36.6428 25.3937 34.7474 19.4419 34.7474C9.42134 34.7474 1.17746 26.0731 0.535213 14.3625Z" fill="#919FE5"/>
<path d="M12.7573 18.7392C12.1715 19.3575 12.1715 20.36 12.7573 20.9783C13.3431 21.5967 14.2929 21.5967 14.8787 20.9783L17 18.7392L19.1213 20.9783C19.7071 21.5967 20.6568 21.5967 21.2426 20.9783C21.8284 20.36 21.8284 19.3575 21.2426 18.7392L19.1213 16.5L21.2426 14.2608C21.8284 13.6425 21.8284 12.64 21.2426 12.0216C20.6568 11.4033 19.7071 11.4033 19.1213 12.0216L17 14.2608L14.8787 12.0216C14.2929 11.4033 13.3431 11.4033 12.7573 12.0216C12.1715 12.64 12.1715 13.6425 12.7573 14.2608L14.8787 16.5L12.7573 18.7392Z" fill="white"/>
</svg>
