<svg width="10" height="9" viewBox="0 0 10 9" fill="none" xmlns="http://www.w3.org/2000/svg">
<path d="M0.155074 8.85884L0.15691 8.8605C0.205616 8.90465 0.263539 8.93971 0.32735 8.96365C0.391161 8.98759 0.4596 8.99995 0.528734 9C0.586906 8.99996 0.644676 8.99133 0.69974 8.97444L3.69776 8.05913L9.45076 2.88138C9.80245 2.56482 10 2.13549 10 1.68783C9.99998 1.24017 9.80237 0.810853 9.45064 0.494323C9.09891 0.177794 8.62188 -1.95969e-05 8.12449 1.61993e-09C7.62709 1.96001e-05 7.15008 0.177871 6.79838 0.494428L1.04538 5.67218L0.0284656 8.37035C-0.00356738 8.45425 -0.00868042 8.54458 0.0137127 8.63098C0.0361058 8.71738 0.0850986 8.79635 0.155074 8.85884ZM7.27612 0.924362C7.50143 0.723128 7.80616 0.610449 8.12358 0.610998C8.441 0.611546 8.74525 0.725278 8.9697 0.927289C9.19415 1.1293 9.32051 1.40313 9.32111 1.68881C9.32171 1.97449 9.19651 2.24875 8.97291 2.45152L8.21638 3.1324L6.51956 1.60524L7.27612 0.924362ZM1.63462 6.00175L6.04186 2.03517L7.73869 3.56234L3.33142 7.52889L0.763498 8.31291L1.63462 6.00175Z" fill="black"/>
</svg>
