<svg width="48" height="48" viewBox="0 0 48 48" fill="none" xmlns="http://www.w3.org/2000/svg">
<circle cx="24" cy="24" r="24" fill="#919FE5"/>
<path d="M33.7544 28.9173L30.2993 25.9764L27.6418 25.0418C28.5266 23.9707 29.0007 22.6929 28.999 21.3835C28.999 17.8636 25.6347 15 21.4995 15C17.3643 15 14 17.8636 14 21.3835C14 24.9033 17.3643 27.7669 21.4995 27.7669C23.0512 27.7684 24.5649 27.3579 25.8296 26.5926L26.9247 28.8486L30.3796 31.7896C30.6012 31.9783 30.8642 32.1279 31.1537 32.23C31.4432 32.332 31.7535 32.3846 32.0669 32.3846C32.3803 32.3846 32.6906 32.3321 32.9801 32.23C33.2696 32.1279 33.5327 31.9783 33.7543 31.7897C33.9758 31.6011 34.1516 31.3772 34.2716 31.1308C34.3915 30.8844 34.4532 30.6203 34.4532 30.3535C34.4532 30.0868 34.3915 29.8227 34.2716 29.5762C34.1517 29.3298 33.9759 29.1059 33.7544 28.9173V28.9173ZM15.3635 21.3835C15.3635 18.5037 18.1162 16.1606 21.4995 16.1606C24.8828 16.1606 27.6355 18.5037 27.6355 21.3835C27.6355 24.2633 24.8828 26.6063 21.4995 26.6063C18.1162 26.6063 15.3635 24.2633 15.3635 21.3835ZM32.7901 30.969C32.5982 31.132 32.3381 31.2235 32.067 31.2235C31.7958 31.2235 31.5358 31.132 31.3438 30.969L28.081 28.1917L27.0629 26.0941L29.5274 26.9607L32.7902 29.7379C32.9817 29.9013 33.0892 30.1227 33.0892 30.3535C33.0892 30.5842 32.9816 30.8056 32.7901 30.969V30.969Z" fill="white"/>
</svg>
