<svg width="28" height="27" viewBox="0 0 28 27" fill="none" xmlns="http://www.w3.org/2000/svg">
<ellipse cx="13.9673" cy="13.6399" rx="11.1935" ry="10.8057" fill="white" stroke="white" stroke-width="5"/>
<path d="M13.6162 13.7596C14.3447 13.0173 14.8396 12.4606 15.1007 12.0895C15.3756 11.7046 15.5131 11.3197 15.5131 10.9348C15.5131 10.5224 15.355 10.1788 15.0389 9.90389C14.7365 9.61523 14.3516 9.4709 13.8842 9.4709C13.032 9.4709 12.3447 9.89702 11.8224 10.7493L10.4409 9.94513C10.9083 9.25784 11.41 8.75612 11.9461 8.43997C12.4959 8.11008 13.1763 7.94513 13.9873 7.94513C14.8533 7.94513 15.5956 8.22004 16.2141 8.76987C16.8327 9.3197 17.142 10.0413 17.142 10.9348C17.142 11.4434 17.0045 11.9383 16.7296 12.4194C16.4684 12.8867 15.9736 13.4915 15.2451 14.2338L12.8739 16.6462H17.4512V18.275H10.5646V16.8317L13.6162 13.7596Z" fill="#342145"/>
</svg>
