<svg width="28" height="27" viewBox="0 0 28 27" fill="none" xmlns="http://www.w3.org/2000/svg">
<ellipse cx="14.0327" cy="13.6399" rx="11.1935" ry="10.8057" fill="white" stroke="white" stroke-width="5"/>
<path d="M10.9664 10.418V8.91289H16.8633V10.2325L14.4303 12.9541C15.3375 12.9816 16.0523 13.2703 16.5746 13.8201C17.1107 14.3562 17.3788 15.0229 17.3788 15.8201C17.3788 16.8373 17.0282 17.6414 16.3272 18.2325C15.6399 18.8235 14.7396 19.1191 13.6262 19.1191C12.5403 19.1191 11.4681 18.7686 10.4097 18.0675L11.1313 16.7067C11.9561 17.284 12.8221 17.5727 13.7293 17.5727C14.3341 17.5727 14.8221 17.4352 15.1932 17.1603C15.5643 16.8716 15.7499 16.473 15.7499 15.9644C15.7499 15.4421 15.5368 15.0297 15.1107 14.7273C14.6846 14.4249 14.1004 14.2737 13.3581 14.2737C13.0007 14.2737 12.6434 14.3287 12.286 14.4387V13.1397L14.6159 10.418H10.9664Z" fill="#342145"/>
</svg>
