<svg width="21" height="22" viewBox="0 0 21 22" fill="none" xmlns="http://www.w3.org/2000/svg">
<path d="M1 21C1 17.13 4.85 14 9.59 14C10.55 14 11.48 14.13 12.35 14.37M9.59 11C10.9161 11 12.1879 10.4732 13.1255 9.53553C14.0632 8.59785 14.59 7.32608 14.59 6C14.59 4.67392 14.0632 3.40215 13.1255 2.46447C12.1879 1.52678 10.9161 1 9.59 1C8.26392 1 6.99215 1.52678 6.05447 2.46447C5.11678 3.40215 4.59 4.67392 4.59 6C4.59 7.32608 5.11678 8.59785 6.05447 9.53553C6.99215 10.4732 8.26392 11 9.59 11V11Z" stroke="black" stroke-width="1.5" stroke-linecap="round" stroke-linejoin="round"/>
<path d="M17.08 16.98H14.1M15.59 15.52V18.51M19.59 17C19.59 17.32 19.55 17.63 19.47 17.93C19.38 18.33 19.22 18.72 19.01 19.06C18.6574 19.6525 18.1567 20.143 17.557 20.4831C16.9573 20.8233 16.2794 21.0014 15.59 21C14.6054 21.0029 13.6558 20.6352 12.93 19.97C12.63 19.71 12.37 19.4 12.17 19.06C11.7893 18.4404 11.5885 17.7272 11.59 17C11.5893 16.4745 11.6923 15.9541 11.8931 15.4685C12.0939 14.9829 12.3885 14.5417 12.7601 14.1701C13.1316 13.7985 13.5729 13.5039 14.0585 13.3031C14.5441 13.1024 15.0645 12.9993 15.59 13C16.77 13 17.84 13.51 18.56 14.33C19.2 15.04 19.59 15.98 19.59 17Z" stroke="black" stroke-width="1.5" stroke-miterlimit="10" stroke-linecap="round" stroke-linejoin="round"/>
</svg>
