<svg width="20" height="19" viewBox="0 0 20 19" fill="none" xmlns="http://www.w3.org/2000/svg">
<path d="M10 3.51381e-05C8.02219 2.93053e-05 6.0888 0.55719 4.4443 1.60106C2.79981 2.64493 1.51809 4.12862 0.761209 5.86452C0.00433197 7.60042 -0.193701 9.51055 0.192153 11.3534C0.578007 13.1962 1.53042 14.8889 2.92894 16.2175C4.80431 17.9991 7.34784 19 10 19C12.6522 19 15.1957 17.9991 17.0711 16.2175C18.9464 14.4359 20 12.0196 20 9.50001C20 6.98045 18.9464 4.56409 17.0711 2.7825C16.1446 1.89758 15.0427 1.19602 13.8289 0.718408C12.6152 0.240798 11.3138 -0.00337037 10 3.51381e-05ZM3.8234 3.73075C3.94034 3.88447 4.05347 4.04895 4.16277 4.2242C4.9404 5.47475 5.4054 7.10447 5.49548 8.86668H1.35874C1.51544 6.93176 2.38865 5.11215 3.8234 3.73075ZM3.8234 15.2693C2.38865 13.8879 1.51544 12.0683 1.35874 10.1333H5.49548C5.4054 11.8955 4.9404 13.5253 4.16277 14.7758C4.05375 14.9512 3.94062 15.1157 3.8234 15.2693ZM9.33334 17.7092C7.70285 17.5909 6.14141 17.0345 4.83131 16.1048C5.00412 15.885 5.16418 15.6564 5.31077 15.42C6.20589 13.9805 6.73714 12.1228 6.83039 10.1333H9.33334V17.7092ZM9.33334 8.86668H6.83039C6.73714 6.87734 6.20589 5.01954 5.31077 3.57998C5.16418 3.34361 5.00412 3.115 4.83131 2.89519C6.14141 1.96552 7.70285 1.40907 9.33334 1.2908V8.86668ZM10.6667 1.2908C12.2972 1.40907 13.8586 1.96552 15.1687 2.89519C14.9959 3.115 14.8358 3.34361 14.6892 3.57998C13.7941 5.01954 13.2629 6.87726 13.1696 8.86668H10.6667V1.2908ZM10.6667 17.7092V10.1333H13.1696C13.2629 12.1227 13.7941 13.9805 14.6892 15.42C14.8358 15.6564 14.9959 15.885 15.1687 16.1048C13.8586 17.0345 12.2972 17.5909 10.6667 17.7092ZM16.1766 15.2693C16.0597 15.1156 15.9465 14.9511 15.8372 14.7758C15.0596 13.5253 14.5946 11.8955 14.5045 10.1333H18.6413C18.4846 12.0683 17.6114 13.8879 16.1766 15.2693ZM14.5045 8.86668C14.5946 7.10447 15.0596 5.47475 15.8372 4.2242C15.9463 4.04882 16.0594 3.88434 16.1766 3.73075C17.6114 5.11215 18.4846 6.93176 18.6413 8.86668H14.5045Z" fill="white"/>
</svg>
