<svg width="15" height="15" viewBox="0 0 15 15" fill="none" xmlns="http://www.w3.org/2000/svg">
<path d="M2.08069 11.7061H14.3061V0H2.04695C1.5046 0.00157547 0.984963 0.196929 0.601463 0.54342C0.217964 0.88991 0.00174375 1.3594 0 1.84941V12.6282H0.000371201C0.000371201 12.6328 0 12.6374 0 12.6421C0 13.7212 0.937384 14.6327 2.04695 14.6327H14.3061V13.6571H2.04695C1.54073 13.6571 1.0797 13.1733 1.0797 12.642C1.0797 12.1347 1.53807 11.7061 2.08069 11.7061ZM10.797 0.985659V6.25388L9.16397 4.95859L7.55791 6.24629V0.985659H10.797ZM6.47821 0.975507V7.56018H7.5458L9.16789 6.25974L10.8073 7.56018H11.8767V0.975507H13.2264V10.7306H3.24181L3.23911 0.975507H6.47821ZM2.04695 0.975507H2.1594L2.16197 10.7306H2.08055C1.72948 10.7306 1.38449 10.8135 1.0797 10.9709V1.85703C1.07888 1.62433 1.18025 1.40083 1.36158 1.23557C1.54291 1.07031 1.78939 0.976781 2.04695 0.975507Z" fill="white"/>
</svg>
