<svg width="21" height="21" viewBox="0 0 21 21" fill="none" xmlns="http://www.w3.org/2000/svg">
<path d="M1.4336 8.99084L1.43362 8.99082L9.71055 1.14929L9.36667 0.78632L9.71055 1.14929C9.89863 0.971101 10.1574 0.864441 10.434 0.858984C10.7106 0.853527 10.9744 0.94992 11.1709 1.12117L11.4994 0.744245L11.1709 1.12117L20.1704 8.96513L20.1704 8.96514L20.4672 9.22388V20.0902H13.4914V13.3774V12.8774H12.9914H8.64087H8.14087V13.3774V20.0902H1.16498V9.2453L1.4336 8.99084ZM10.0129 1.48746L1.77264 9.23502L1.61514 9.38311V9.5993V19.2164V19.7164H2.11514H7.19071H7.69071V19.2164V13.3774C7.69071 13.1547 7.78387 12.9352 7.95932 12.7689L7.61545 12.406L7.95933 12.7689C8.1357 12.6018 8.38041 12.5036 8.64087 12.5036H12.9914C13.2518 12.5036 13.4965 12.6018 13.6729 12.7689C13.8484 12.9352 13.9415 13.1547 13.9415 13.3774V19.2164V19.7164H14.4415H19.5171H20.0171V19.2164V9.5993V9.3708L19.8443 9.22126L10.8856 1.46648C10.8183 1.35935 10.7244 1.30366 10.6674 1.27763L10.3713 1.02129L10.1415 1.33857C10.098 1.37231 10.0531 1.41857 10.0162 1.48159C10.0151 1.48355 10.014 1.48551 10.0129 1.48746ZM10.0782 1.42605L10.0471 1.45525C10.0599 1.43615 10.0701 1.42374 10.0742 1.41885L10.075 1.41777C10.0888 1.40094 10.1025 1.38658 10.1144 1.37515L10.1147 1.37556L10.0782 1.42605ZM10.7898 1.36982C10.7965 1.376 10.8201 1.39781 10.8466 1.43274L10.7836 1.37823L10.7823 1.37712L10.7893 1.36936L10.7898 1.36982Z" fill="white" stroke="white"/>
<path d="M10.5 1L16.5 6L20.5 10V20H14V12.5H11.5H8V19.5H1.5V10L10.5 1Z" fill="white"/>
<path d="M10.5 1L16.5 6L20.5 10V20H14V12.5H11.5H8V19.5H1.5V10L10.5 1Z" fill="white"/>
<path d="M10.5 1L16.5 6L20.5 10V20H14V12.5H11.5H8V19.5H1.5V10L10.5 1Z" fill="white"/>
<path d="M10.5 1L16.5 6L20.5 10V20H14V12.5H11.5H8V19.5H1.5V10L10.5 1Z" fill="white"/>
</svg>
