<svg width="14" height="22" viewBox="0 0 14 22" fill="none" xmlns="http://www.w3.org/2000/svg">
<path d="M12.0415 5.02897C10.8859 3.03054 9.24543 1.36971 7.27818 0.206627L6.92819 0L6.5782 0.206627C4.57748 1.38522 2.91615 3.08089 1.76137 5.12303C0.606584 7.16517 -0.000912288 9.48174 1.0283e-06 11.8396C1.0283e-06 11.9933 0.00262212 12.1493 0.00773308 12.3034C0.0772771 14.3927 0.86004 16.1507 2.27141 17.3874C3.35144 18.3338 4.73681 18.9115 6.22943 19.0494V21.5137H7.6273V10.0988H6.22926V17.6133C3.86756 17.3341 1.517 15.6311 1.40469 12.2549C1.40005 12.1169 1.3977 11.9772 1.3977 11.8396C1.40186 9.80367 1.91126 7.80196 2.87836 6.02131C3.84547 4.24066 5.23875 2.73911 6.92819 1.65681C8.6176 2.73914 10.0108 4.24069 10.9779 6.02134C11.945 7.80198 12.4544 9.80369 12.4585 11.8396C12.4585 11.9772 12.4562 12.1169 12.4515 12.2549C12.3617 14.9558 10.8393 16.5857 9.02482 17.2728V18.7829C9.96639 18.5105 10.8395 18.0345 11.585 17.3873C12.9963 16.1506 13.7791 14.3926 13.8487 12.3033C13.8538 12.1492 13.8564 11.9932 13.8564 11.8396C13.8576 9.44475 13.231 7.0932 12.0415 5.02897Z" fill="white"/>
</svg>
