<svg width="16" height="20" viewBox="0 0 16 20" fill="none" xmlns="http://www.w3.org/2000/svg">
<path d="M0 7.62366L6.7474 6.22989V15.3621H6.74925C6.74802 15.4028 6.7474 15.4437 6.7474 15.4847C6.7474 17.9148 8.79051 19.8918 11.3019 19.8918C13.8133 19.8918 15.8564 17.9148 15.8564 15.4847C15.8564 13.0545 13.8133 11.0775 11.3019 11.0775C10.1155 11.0707 8.97059 11.5276 8.09688 12.3566V0L0 1.67252V7.62366ZM11.3019 12.4714C13.0691 12.4714 14.5069 13.8232 14.5069 15.4848C14.5069 17.1464 13.0691 18.4982 11.3019 18.4982C9.53466 18.4982 8.09688 17.1462 8.09688 15.4847C8.09688 13.8231 9.53466 12.4712 11.3019 12.4712V12.4714ZM1.34948 2.81515L6.7474 1.70014V4.80851L1.34948 5.92352V2.81515Z" fill="white"/>
</svg>
