<svg width="44" height="44" viewBox="0 0 44 44" fill="none" xmlns="http://www.w3.org/2000/svg">
<circle cx="22" cy="22" r="22" fill="#919FE5"/>
<path d="M31.4354 12.582C30.9352 12.0686 30.1949 11.8773 29.5046 12.0787L13.408 16.7595C12.6797 16.9619 12.1635 17.5427 12.0244 18.2806C11.8824 19.0315 12.3786 19.9848 13.0268 20.3834L18.0599 23.4768C18.5761 23.7939 19.2424 23.7144 19.6696 23.2835L25.4329 17.4843C25.723 17.1823 26.2032 17.1823 26.4934 17.4843C26.7835 17.7762 26.7835 18.2493 26.4934 18.5513L20.72 24.3516C20.2918 24.7814 20.2118 25.4508 20.5269 25.9702L23.6022 31.0538C23.9623 31.6577 24.5826 32 25.2628 32C25.3429 32 25.4329 32 25.513 31.9899C26.2933 31.8893 26.9135 31.3558 27.1436 30.6008L31.9156 14.5248C32.1257 13.8403 31.9356 13.0954 31.4354 12.582Z" fill="white"/>
</svg>
