<svg width="22" height="21" viewBox="0 0 22 21" fill="none" xmlns="http://www.w3.org/2000/svg">
<path d="M20.3466 16.5898L16.917 13.1673L14.2791 12.0797C15.1575 10.8332 15.628 9.34615 15.6263 7.82231C15.6263 3.72604 12.2869 0.393494 8.18218 0.393494C4.07746 0.393494 0.738037 3.72604 0.738037 7.82231C0.738037 11.9186 4.07746 15.2511 8.18218 15.2511C9.72246 15.2529 11.2249 14.7752 12.4803 13.8845L13.5673 16.5099L16.9967 19.9326C17.2167 20.1521 17.4778 20.3262 17.7652 20.445C18.0525 20.5638 18.3605 20.625 18.6716 20.625C18.9826 20.625 19.2907 20.5639 19.578 20.4451C19.8654 20.3263 20.1265 20.1522 20.3465 19.9327C20.5664 19.7132 20.7409 19.4526 20.86 19.1659C20.979 18.8791 21.0403 18.5717 21.0403 18.2613C21.0403 17.9509 20.9791 17.6435 20.86 17.3567C20.741 17.0699 20.5665 16.8093 20.3466 16.5898ZM2.09152 7.82231C2.09152 4.4709 4.82386 1.74419 8.18218 1.74419C11.5405 1.74419 14.2729 4.4709 14.2729 7.82231C14.2729 11.1737 11.5405 13.9004 8.18218 13.9004C4.82386 13.9004 2.09152 11.1737 2.09152 7.82231ZM19.3895 18.9775C19.1989 19.1672 18.9408 19.2738 18.6717 19.2738C18.4025 19.2738 18.1444 19.1672 17.9539 18.9775L14.7151 15.7455L13.7045 13.3043L16.1508 14.3129L19.3896 17.5449C19.5796 17.735 19.6864 17.9927 19.6863 18.2612C19.6863 18.5298 19.5796 18.7874 19.3895 18.9775Z" fill="white"/>
</svg>
