<svg width="22" height="23" viewBox="0 0 22 23" fill="none" xmlns="http://www.w3.org/2000/svg">
<path d="M11.0334 15.5838C12.0022 15.5838 12.9312 15.1774 13.6162 14.4538C14.3012 13.7303 14.686 12.7489 14.686 11.7257C14.686 10.7025 14.3012 9.72112 13.6162 8.99758C12.9312 8.27404 12.0022 7.86755 11.0334 7.86755C10.0647 7.86755 9.13567 8.27404 8.45068 8.99758C7.76568 9.72112 7.38086 10.7025 7.38086 11.7257C7.38086 12.7489 7.76568 13.7303 8.45068 14.4538C9.13567 15.1774 10.0647 15.5838 11.0334 15.5838Z" stroke="white" stroke-width="1.5" stroke-miterlimit="10" stroke-linecap="round" stroke-linejoin="round"/>
<path d="M0.884155 12.4523V10.5661C0.884155 9.45156 1.74657 8.52989 2.81191 8.52989C4.64834 8.52989 5.39915 7.1581 4.47586 5.47552C3.94827 4.51098 4.26279 3.25709 5.18608 2.6998L6.94135 1.63881C7.74289 1.13511 8.77779 1.43518 9.25465 2.28183L9.36626 2.48546C10.2794 4.16804 11.781 4.16804 12.7043 2.48546L12.8159 2.28183C13.2928 1.43518 14.3277 1.13511 15.1292 1.63881L16.8845 2.6998C17.8078 3.25709 18.1223 4.51098 17.5947 5.47552C16.6714 7.1581 17.4222 8.52989 19.2587 8.52989C20.3139 8.52989 21.1864 9.44084 21.1864 10.5661V12.4523C21.1864 13.5669 20.324 14.4886 19.2587 14.4886C17.4222 14.4886 16.6714 15.8604 17.5947 17.5429C18.1223 18.5182 17.8078 19.7614 16.8845 20.3187L15.1292 21.3797C14.3277 21.8834 13.2928 21.5833 12.8159 20.7366L12.7043 20.533C11.7912 18.8504 10.2896 18.8504 9.36626 20.533L9.25465 20.7366C8.77779 21.5833 7.74289 21.8834 6.94135 21.3797L5.18608 20.3187C4.74382 20.0497 4.42065 19.6064 4.28749 19.086C4.15434 18.5656 4.22209 18.0106 4.47586 17.5429C5.39915 15.8604 4.64834 14.4886 2.81191 14.4886C1.74657 14.4886 0.884155 13.5669 0.884155 12.4523V12.4523Z" stroke="white" stroke-width="1.5" stroke-miterlimit="10" stroke-linecap="round" stroke-linejoin="round"/>
</svg>
