<svg width="24" height="24" viewBox="0 0 24 24" fill="none" xmlns="http://www.w3.org/2000/svg">
<path d="M3.41003 22C3.41003 18.13 7.26003 15 12 15C12.96 15 13.89 15.13 14.76 15.37M12 12C13.3261 12 14.5979 11.4732 15.5356 10.5355C16.4733 9.59785 17 8.32608 17 7C17 5.67392 16.4733 4.40215 15.5356 3.46447C14.5979 2.52678 13.3261 2 12 2C10.674 2 9.40218 2.52678 8.4645 3.46447C7.52682 4.40215 7.00003 5.67392 7.00003 7C7.00003 8.32608 7.52682 9.59785 8.4645 10.5355C9.40218 11.4732 10.674 12 12 12V12Z" stroke="white" stroke-width="1.5" stroke-linecap="round" stroke-linejoin="round"/>
<path d="M19.03 16.94L16.92 19.05M16.94 16.96L19.06 19.07M22 18C22 18.32 21.96 18.63 21.88 18.93C21.79 19.33 21.63 19.72 21.42 20.06C21.0675 20.6525 20.5667 21.143 19.967 21.4831C19.3674 21.8233 18.6894 22.0014 18 22C17.0155 22.0029 16.0659 21.6352 15.34 20.97C15.04 20.71 14.78 20.4 14.58 20.06C14.1993 19.4404 13.9985 18.7272 14 18C13.9994 17.4745 14.1024 16.9541 14.3031 16.4685C14.5039 15.9829 14.7985 15.5417 15.1701 15.1701C15.5417 14.7985 15.9829 14.5039 16.4685 14.3031C16.9541 14.1024 17.4745 13.9993 18 14C19.18 14 20.25 14.51 20.97 15.33C21.61 16.04 22 16.98 22 18Z" stroke="white" stroke-width="1.5" stroke-miterlimit="10" stroke-linecap="round" stroke-linejoin="round"/>
</svg>
