<svg width="22" height="23" viewBox="0 0 22 23" fill="none" xmlns="http://www.w3.org/2000/svg">
<path d="M17.341 21.2406C16.4477 21.5036 15.392 21.625 14.1536 21.625H8.06288C6.82444 21.625 5.76873 21.5036 4.87543 21.2406C5.09875 18.6105 7.8091 16.5368 11.1082 16.5368C14.4073 16.5368 17.1177 18.6105 17.341 21.2406V21.2406Z" stroke="white" stroke-width="1.5" stroke-linecap="round" stroke-linejoin="round"/>
<path d="M14.1536 1.39349H8.06295C2.98738 1.39349 0.957153 3.41664 0.957153 8.47451V14.544C0.957153 18.3677 2.11438 20.4617 4.87549 21.2406C5.09882 18.6105 7.80917 16.5368 11.1083 16.5368C14.4074 16.5368 17.1178 18.6105 17.3411 21.2406C20.1022 20.4617 21.2594 18.3677 21.2594 14.544V8.47451C21.2594 3.41664 19.2292 1.39349 14.1536 1.39349ZM11.1083 13.7043C9.09836 13.7043 7.47418 12.0757 7.47418 10.0728C7.47418 8.06988 9.09836 6.45136 11.1083 6.45136C13.1182 6.45136 14.7424 8.06988 14.7424 10.0728C14.7424 12.0757 13.1182 13.7043 11.1083 13.7043Z" stroke="white" stroke-width="1.5" stroke-linecap="round" stroke-linejoin="round"/>
</svg>
