<svg width="44" height="44" viewBox="0 0 44 44" fill="none" xmlns="http://www.w3.org/2000/svg">
<path d="M22.3312 13.975H20.6616V22.8805L26.6936 25.6279L27.4103 24.1828L22.3312 21.8694V13.975Z" fill="black"/>
<path d="M21.5217 10C14.6062 10 9 15.3726 9 22C9 28.6274 14.6062 34 21.5217 34C28.4373 34 34.0435 28.6274 34.0435 22C34.0435 15.3726 28.4373 10 21.5217 10ZM21.5217 32.4C15.5283 32.4 10.6696 27.7437 10.6696 22C10.6696 16.2562 15.5283 11.6 21.5217 11.6C27.5152 11.6 32.3739 16.2562 32.3739 22C32.3739 27.7437 27.5152 32.4 21.5217 32.4Z" fill="black"/>
<circle cx="22" cy="22" r="22" fill="#919FE5" fill-opacity="0.3"/>
</svg>
