<svg width="28" height="28" viewBox="0 0 28 28" fill="none" xmlns="http://www.w3.org/2000/svg">
<g id="Sun">
<path id="Squircle" d="M7.57142 14.0108C7.54187 16.7411 7.99877 18.2369 8.85836 19.0965C9.72113 19.9592 11.2359 20.4286 14.0001 20.4286C16.7639 20.4286 18.2619 19.9593 19.1168 19.0988C19.9733 18.2367 20.4286 16.737 20.4286 14C20.4286 11.263 19.9733 9.76334 19.1168 8.90125C18.2619 8.04069 16.7639 7.57145 14.0001 7.57145C11.2366 7.57145 9.75537 8.04059 8.9082 8.89892C8.05479 9.76355 7.60112 11.2671 7.57142 14.0108Z" stroke="black" stroke-width="2" stroke-linecap="round" stroke-linejoin="round"/>
<path id="Vector 65" d="M14 1.92859V3.78573" stroke="black" stroke-width="2" stroke-linecap="round"/>
<path id="Vector 66" d="M14 24.2142V26.0714" stroke="black" stroke-width="2" stroke-linecap="round"/>
<path id="Vector 67" d="M26.0715 14L24.2144 14" stroke="black" stroke-width="2" stroke-linecap="round"/>
<path id="Vector 68" d="M3.78564 14L1.9285 14" stroke="black" stroke-width="2" stroke-linecap="round"/>
<path id="Vector 69" d="M4.71436 4.71423L6.02755 6.02743" stroke="black" stroke-width="2" stroke-linecap="round"/>
<path id="Vector 71" d="M4.71436 23.6702L6.02755 22.357" stroke="black" stroke-width="2" stroke-linecap="round"/>
<path id="Vector 70" d="M23.6702 4.71423L22.357 6.02743" stroke="black" stroke-width="2" stroke-linecap="round"/>
<path id="Vector 72" d="M23.6702 23.6702L22.357 22.357" stroke="black" stroke-width="2" stroke-linecap="round"/>
</g>
</svg>
