<svg width="26" height="24" viewBox="0 0 26 24" fill="none" xmlns="http://www.w3.org/2000/svg">
<path d="M13.3312 3.97498H11.6616V12.8805L17.6936 15.6279L18.4103 14.1828L13.3312 11.8694V3.97498Z" fill="white"/>
<path d="M12.5217 0C5.60619 0 0 5.3726 0 12C0 18.6274 5.60619 24 12.5217 24C19.4373 24 25.0435 18.6274 25.0435 12C25.0435 5.3726 19.4373 0 12.5217 0ZM12.5217 22.4C6.52826 22.4 1.66957 17.7438 1.66957 12C1.66957 6.25625 6.52826 1.6 12.5217 1.6C18.5152 1.6 23.3739 6.25625 23.3739 12C23.3739 17.7438 18.5152 22.4 12.5217 22.4Z" fill="white"/>
</svg>
