<svg width="15" height="15" viewBox="0 0 15 15" fill="none" xmlns="http://www.w3.org/2000/svg">
<g clip-path="url(#clip0_73_1694)">
<path d="M4.49044 5.62671C4.36936 5.50392 4.22454 5.40597 4.06441 5.33858C3.90428 5.2712 3.73205 5.23573 3.55778 5.23425C3.3835 5.23277 3.21067 5.2653 3.04937 5.32994C2.88807 5.39459 2.74153 5.49006 2.61829 5.61078C2.49506 5.7315 2.3976 5.87505 2.33161 6.03306C2.26562 6.19107 2.23241 6.36037 2.23392 6.53109C2.23544 6.7018 2.27164 6.87051 2.34043 7.02738C2.40922 7.18424 2.50921 7.32611 2.63456 7.44471L6.57206 11.3019C6.81819 11.5429 7.15197 11.6783 7.5 11.6783C7.84803 11.6783 8.18181 11.5429 8.42794 11.3019L12.3654 7.44471C12.6045 7.20223 12.7368 6.87745 12.7338 6.54034C12.7308 6.20323 12.5928 5.88076 12.3494 5.64238C12.1061 5.40399 11.7769 5.26878 11.4328 5.26585C11.0886 5.26292 10.7571 5.39251 10.5096 5.62671L8.8125 7.28914V0.107143H15.375C16.0712 0.107143 16.7389 0.37806 17.2312 0.860297C17.7234 1.34253 18 1.99659 18 2.67857V11.6786C18 12.3606 17.7234 13.0146 17.2312 13.4968C16.7389 13.9791 16.0712 14.25 15.375 14.25H-0.375C-1.07119 14.25 -1.73887 13.9791 -2.23116 13.4968C-2.72344 13.0146 -3 12.3606 -3 11.6786V2.67857C-3 1.99659 -2.72344 1.34253 -2.23116 0.860297C-1.73887 0.37806 -1.07119 0.107143 -0.375 0.107143H6.1875V7.28914L4.49044 5.62671ZM6.1875 -2.46429C6.1875 -2.80528 6.32578 -3.1323 6.57192 -3.37342C6.81806 -3.61454 7.1519 -3.75 7.5 -3.75C7.8481 -3.75 8.18194 -3.61454 8.42808 -3.37342C8.67422 -3.1323 8.8125 -2.80528 8.8125 -2.46429V0.107143H6.1875V-2.46429Z" fill="white"/>
</g>
<defs>
<clipPath id="clip0_73_1694">
<rect width="15" height="15" fill="white"/>
</clipPath>
</defs>
</svg>
