<svg width="15" height="15" viewBox="0 0 15 15" fill="none" xmlns="http://www.w3.org/2000/svg">
<g clip-path="url(#clip0_73_1696)">
<path d="M14.9662 0.643126C15.0003 0.557941 15.0086 0.464622 14.9902 0.374738C14.9717 0.284854 14.9273 0.202358 14.8624 0.137477C14.7976 0.0725959 14.7151 0.0281832 14.6252 0.009745C14.5353 -0.00869323 14.442 -0.000346201 14.3568 0.0337513L0.718972 5.48906H0.718034L0.294284 5.65781C0.214025 5.68983 0.144177 5.7434 0.0924554 5.81262C0.0407336 5.88184 0.00915132 5.96401 0.00119706 6.05005C-0.0067572 6.1361 0.00922618 6.22266 0.0473816 6.30019C0.0855371 6.37772 0.14438 6.44319 0.217409 6.48938L0.601784 6.73313L0.602722 6.735L5.28553 9.71438L8.26491 14.3972L8.26678 14.3991L8.51053 14.7834C8.55687 14.8562 8.62238 14.9147 8.69985 14.9527C8.77732 14.9906 8.86375 15.0064 8.94962 14.9983C9.0355 14.9903 9.11749 14.9587 9.18657 14.9071C9.25565 14.8554 9.30914 14.7857 9.34116 14.7056L14.9662 0.643126ZM13.2477 2.415L6.2221 9.44063L6.02053 9.12375C5.9836 9.0656 5.93431 9.01631 5.87616 8.97938L5.55928 8.77781L12.5849 1.75219L13.6893 1.31063L13.2487 2.415H13.2477Z" fill="#F5F5F5"/>
</g>
<defs>
<clipPath id="clip0_73_1696">
<rect width="15" height="15" fill="white"/>
</clipPath>
</defs>
</svg>
