<svg width="22" height="23" viewBox="0 0 22 23" fill="none" xmlns="http://www.w3.org/2000/svg">
<path d="M11.0334 15.5838C12.0022 15.5838 12.9312 15.1774 13.6162 14.4538C14.3012 13.7303 14.686 12.7489 14.686 11.7257C14.686 10.7025 14.3012 9.72112 13.6162 8.99758C12.9312 8.27404 12.0022 7.86755 11.0334 7.86755C10.0647 7.86755 9.13565 8.27404 8.45066 8.99758C7.76567 9.72112 7.38084 10.7025 7.38084 11.7257C7.38084 12.7489 7.76567 13.7303 8.45066 14.4538C9.13565 15.1774 10.0647 15.5838 11.0334 15.5838Z" stroke="black" stroke-width="1.5" stroke-miterlimit="10" stroke-linecap="round" stroke-linejoin="round"/>
<path d="M0.884125 12.4523V10.5661C0.884125 9.45156 1.74654 8.52989 2.81188 8.52989C4.64831 8.52989 5.39912 7.1581 4.47583 5.47552C3.94823 4.51098 4.26276 3.25709 5.18605 2.6998L6.94132 1.63881C7.74286 1.13511 8.77776 1.43518 9.25462 2.28183L9.36623 2.48546C10.2794 4.16804 11.781 4.16804 12.7043 2.48546L12.8159 2.28183C13.2928 1.43518 14.3277 1.13511 15.1292 1.63881L16.8845 2.6998C17.8078 3.25709 18.1223 4.51098 17.5947 5.47552C16.6714 7.1581 17.4222 8.52989 19.2586 8.52989C20.3138 8.52989 21.1864 9.44084 21.1864 10.5661V12.4523C21.1864 13.5669 20.324 14.4886 19.2586 14.4886C17.4222 14.4886 16.6714 15.8604 17.5947 17.5429C18.1223 18.5182 17.8078 19.7614 16.8845 20.3187L15.1292 21.3797C14.3277 21.8834 13.2928 21.5833 12.8159 20.7366L12.7043 20.533C11.7911 18.8504 10.2895 18.8504 9.36623 20.533L9.25462 20.7366C8.77776 21.5833 7.74286 21.8834 6.94132 21.3797L5.18605 20.3187C4.74379 20.0497 4.42062 19.6064 4.28746 19.086C4.15431 18.5656 4.22206 18.0106 4.47583 17.5429C5.39912 15.8604 4.64831 14.4886 2.81188 14.4886C1.74654 14.4886 0.884125 13.5669 0.884125 12.4523V12.4523Z" stroke="black" stroke-width="1.5" stroke-miterlimit="10" stroke-linecap="round" stroke-linejoin="round"/>
</svg>
