<svg width="23" height="23" viewBox="0 0 23 23" fill="none" xmlns="http://www.w3.org/2000/svg">
<path d="M17.3411 21.2406C16.4478 21.5036 15.392 21.625 14.1536 21.625H8.06293C6.82449 21.625 5.76877 21.5036 4.87547 21.2406C5.0988 18.6105 7.80915 16.5368 11.1083 16.5368C14.4074 16.5368 17.1177 18.6105 17.3411 21.2406V21.2406Z" stroke="black" stroke-width="1.5" stroke-linecap="round" stroke-linejoin="round"/>
<path d="M14.1537 1.39349H8.06298C2.98741 1.39349 0.957184 3.41664 0.957184 8.47451V14.544C0.957184 18.3677 2.11441 20.4617 4.87552 21.2406C5.09885 18.6105 7.8092 16.5368 11.1083 16.5368C14.4074 16.5368 17.1178 18.6105 17.3411 21.2406C20.1022 20.4617 21.2595 18.3677 21.2595 14.544V8.47451C21.2595 3.41664 19.2292 1.39349 14.1537 1.39349ZM11.1083 13.7043C9.09839 13.7043 7.47421 12.0757 7.47421 10.0728C7.47421 8.06988 9.09839 6.45136 11.1083 6.45136C13.1182 6.45136 14.7424 8.06988 14.7424 10.0728C14.7424 12.0757 13.1182 13.7043 11.1083 13.7043Z" stroke="black" stroke-width="1.5" stroke-linecap="round" stroke-linejoin="round"/>
</svg>
